<svg width="100%"
    viewBox="215.5223015381991 115.00000000000003 118.95539692360177 144.211268882162"
    xmlns:xlink="http://www.w3.org/1999/xlink"
    xmlns:xodm="http://www.corel.com/coreldraw/odm/2003"
    xmlns="http://www.w3.org/2000/svg"
    version="1.1">
    <g
        data-paper-data="{&quot;selectedEffects&quot;:{&quot;container&quot;:&quot;&quot;,&quot;transformation&quot;:&quot;&quot;,&quot;pattern&quot;:&quot;&quot;},&quot;initialText&quot;:&quot;R&quot;,&quot;isIcon&quot;:&quot;true&quot;,&quot;iconType&quot;:&quot;initial&quot;,&quot;iconStyle&quot;:&quot;standalone&quot;,&quot;rawInitialId&quot;:436,&quot;disableIconEffects&quot;:&quot;true&quot;,&quot;monogramSpecial&quot;:&quot;seven-nation-army&quot;,&quot;bounds&quot;:{&quot;x&quot;:215.5223015381991,&quot;y&quot;:115.00000000000003,&quot;width&quot;:118.95539692360177,&quot;height&quot;:144.211268882162},&quot;fillRule&quot;:&quot;evenodd&quot;,&quot;suitableAsStandaloneIcon&quot;:true}"
        fill-rule="evenodd">
        <g data-paper-data="{&quot;isPathIcon&quot;:true}">
            <path
                d="M271.70902,246.00334l6.40197,6.52397c0.518,0.528 1.05999,1.02899 1.62799,1.50199c0.568,0.474 1.15699,0.919 1.76899,1.33399c0.612,0.415 1.24299,0.799 1.89299,1.15099c0.65,0.353 1.31499,0.672 1.99699,0.958c0.682,0.286 1.37599,0.538 2.08299,0.755c0.707,0.217 1.42199,0.399 2.14699,0.545c0.725,0.146 1.45499,0.255 2.19099,0.329c0.736,0.073 1.47299,0.11 2.21199,0.11h18.14291c0.364,0 0.729,-0.009 1.09399,-0.027c0.364,-0.018 0.729,-0.045 1.09099,-0.081c0.364,-0.036 0.726,-0.08 1.08799,-0.134c0.361,-0.053 0.72,-0.116 1.07799,-0.187c0.358,-0.071 0.714,-0.151 1.06799,-0.24c0.354,-0.089 0.706,-0.186 1.05499,-0.292c0.35,-0.106 0.696,-0.22 1.03999,-0.343c0.343,-0.123 0.684,-0.255 1.02099,-0.394c0.337,-0.14 0.671,-0.288 1.00099,-0.444c0.33,-0.156 0.656,-0.32 0.978,-0.492c0.321,-0.172 0.639,-0.352 0.952,-0.539c0.313,-0.188 0.622,-0.384 0.925,-0.587c0.304,-0.202 0.602,-0.412 0.895,-0.629c0.293,-0.218 0.581,-0.443 0.863,-0.674c0.282,-0.232 0.559,-0.47 0.829,-0.716c0.271,-0.244 0.535,-0.496 0.793,-0.754c0.258,-0.258 0.509,-0.522 0.755,-0.793c0.245,-0.27 0.483,-0.547 0.715,-0.829c0.231,-0.282 0.456,-0.57 0.673,-0.863c0.218,-0.293 0.428,-0.592 0.631,-0.895c0.203,-0.304 0.398,-0.612 0.586,-0.926c0.187,-0.312 0.367,-0.629 0.539,-0.951c0.172,-0.322 0.336,-0.648 0.492,-0.978c0.156,-0.33 0.304,-0.664 0.444,-1.00099c0.14,-0.337 0.271,-0.678 0.394,-1.02199c0.123,-0.343 0.237,-0.69 0.343,-1.03999c0.106,-0.349 0.204,-0.7 0.292,-1.05399c0.089,-0.354 0.169,-0.71 0.24,-1.06699c0.071,-0.359 0.134,-0.719 0.187,-1.07999c0.054,-0.361 0.098,-0.723 0.134,-1.08599c0.036,-0.364 0.063,-0.728 0.081,-1.09199c0.018,-0.365 0.027,-0.729 0.027,-1.09499c0,-0.727 -0.036,-1.45299 -0.107,-2.17699c-0.071,-0.724 -0.177,-1.44299 -0.318,-2.15699c-0.142,-0.714 -0.318,-1.41899 -0.528,-2.11499c-0.211,-0.697 -0.455,-1.38099 -0.732,-2.05399c-0.277,-0.672 -0.587,-1.32999 -0.929,-1.97199c-0.341,-0.643 -0.714,-1.26699 -1.11599,-1.87299c-0.403,-0.606 -0.835,-1.18999 -1.29499,-1.75399c-0.46,-0.564 -0.946,-1.10399 -1.45899,-1.61999l-14.07793,-14.16493c0.499,-0.57 0.98999,-1.15399 1.47099,-1.74999c8.07896,-10.00595 12.11794,-21.77589 12.11794,-35.30982c0,-17.35525 -6.41163,-31.20718 -19.2349,-41.55579c-11.07394,-8.93595 -24.97387,-13.40393 -41.70079,-13.40393h-28.74285c-0.365,0 -0.73,0.008 -1.09499,0.027c-0.364,0.018 -0.727,0.045 -1.08999,0.08c-0.364,0.035 -0.726,0.08 -1.08699,0.133c-0.361,0.055 -0.721,0.117 -1.07899,0.189c-0.358,0.07 -0.714,0.15 -1.06799,0.239c-0.354,0.089 -0.706,0.186 -1.05499,0.292c-0.349,0.106 -0.696,0.22 -1.03999,0.343c-0.343,0.123 -0.684,0.255 -1.02199,0.395c-0.336,0.139 -0.669,0.287 -0.99899,0.443c-0.33,0.156 -0.656,0.32 -0.978,0.492c-0.323,0.172 -0.64,0.352 -0.953,0.54c-0.313,0.187 -0.621,0.382 -0.925,0.585c-0.304,0.203 -0.602,0.414 -0.895,0.631c-0.293,0.217 -0.581,0.442 -0.863,0.673c-0.282,0.232 -0.559,0.47 -0.829,0.716c-0.271,0.245 -0.535,0.496 -0.793,0.754c-0.258,0.258 -0.51,0.523 -0.755,0.793c-0.245,0.271 -0.483,0.547 -0.715,0.829c-0.231,0.282 -0.456,0.57 -0.673,0.863c-0.218,0.293 -0.428,0.592 -0.631,0.895c-0.203,0.304 -0.398,0.612 -0.586,0.926c-0.187,0.312 -0.367,0.63 -0.539,0.952c-0.172,0.321 -0.336,0.647 -0.492,0.977c-0.156,0.331 -0.304,0.664 -0.444,1.00099c-0.14,0.338 -0.271,0.678 -0.394,1.02199c-0.123,0.343 -0.237,0.69 -0.343,1.03899c-0.106,0.349 -0.204,0.701 -0.292,1.05499c-0.089,0.354 -0.169,0.71 -0.24,1.06799c-0.071,0.358 -0.134,0.718 -0.187,1.07899c-0.054,0.361 -0.099,0.723 -0.134,1.08599c-0.036,0.364 -0.063,0.728 -0.081,1.09199c-0.018,0.365 -0.027,0.73 -0.027,1.09499v99.6025c0,0.366 0.009,0.73 0.027,1.09499c0.018,0.364 0.045,0.728 0.081,1.09199c0.035,0.363 0.08,0.725 0.134,1.08599c0.053,0.361 0.116,0.721 0.187,1.07899c0.071,0.358 0.151,0.714 0.24,1.06799c0.088,0.354 0.186,0.706 0.292,1.05499c0.106,0.349 0.22,0.696 0.343,1.03999c0.123,0.343 0.254,0.684 0.394,1.02099c0.14,0.337 0.288,0.671 0.444,1.00099c0.156,0.33 0.32,0.656 0.492,0.978c0.172,0.321 0.352,0.639 0.54,0.952c0.187,0.313 0.382,0.622 0.585,0.925c0.203,0.304 0.413,0.602 0.631,0.895c0.217,0.293 0.442,0.581 0.673,0.863c0.232,0.282 0.47,0.558 0.715,0.829c0.245,0.27 0.497,0.535 0.755,0.793c0.258,0.258 0.522,0.509 0.793,0.755c0.27,0.245 0.547,0.483 0.829,0.715c0.282,0.231 0.569,0.456 0.863,0.673c0.293,0.218 0.591,0.428 0.895,0.631c0.303,0.202 0.612,0.398 0.925,0.585c0.313,0.188 0.631,0.368 0.953,0.54c0.321,0.172 0.647,0.336 0.978,0.492c0.329,0.156 0.663,0.304 0.99999,0.444c0.337,0.139 0.678,0.271 1.02099,0.394c0.344,0.123 0.69,0.237 1.03999,0.343c0.349,0.106 0.701,0.203 1.05499,0.292c0.354,0.089 0.71,0.169 1.06799,0.24c0.358,0.071 0.718,0.134 1.07899,0.187c0.361,0.054 0.723,0.098 1.08699,0.134c0.363,0.036 0.726,0.063 1.08999,0.081c0.366,0.018 0.731,0.027 1.09499,0.027h13.51793c0.342,0 0.683,-0.008 1.02399,-0.024c0.341,-0.016 0.682,-0.039 1.02099,-0.07c0.341,-0.032 0.68,-0.071 1.01799,-0.118c0.339,-0.047 0.676,-0.101 1.01099,-0.164c0.336,-0.062 0.67,-0.132 1.00199,-0.21c0.333,-0.078 0.664,-0.163 0.99199,-0.256c0.329,-0.093 0.655,-0.193 0.979,-0.301c0.324,-0.108 0.646,-0.223 0.964,-0.346c0.319,-0.122 0.635,-0.252 0.947,-0.389c0.313,-0.138 0.622,-0.282 0.928,-0.433c0.307,-0.152 0.609,-0.31 0.908,-0.475c0.299,-0.165 0.594,-0.338 0.885,-0.516c0.29,-0.179 0.577,-0.364 0.859,-0.556c0.283,-0.192 0.561,-0.391 0.834,-0.595c0.274,-0.205 0.542,-0.416 0.806,-0.633c0.263,-0.217 0.522,-0.44 0.775,-0.669c0.253,-0.229 0.502,-0.464 0.744,-0.704c0.243,-0.241 0.48,-0.486 0.711,-0.738c0.231,-0.251 0.457,-0.507 0.676,-0.768c0.219,-0.262 0.433,-0.528 0.64,-0.799c0.208,-0.272 0.409,-0.549 0.604,-0.829c0.194,-0.28 0.382,-0.565 0.564,-0.854c0.181,-0.29 0.356,-0.583 0.524,-0.88c0.168,-0.297 0.329,-0.599 0.483,-0.903c0.155,-0.305 0.302,-0.613 0.442,-0.924c0.008,-0.018 0.016,-0.036 0.024,-0.054zM284.50295,248.32232c-0.378,-0.316 -0.74,-0.65 -1.08499,-1.00199l-10.92894,-11.13794c-0.151,-0.154 -0.314,-0.293 -0.489,-0.419c-0.175,-0.125 -0.36,-0.235 -0.554,-0.328c-0.194,-0.093 -0.395,-0.169 -0.602,-0.228c-0.208,-0.058 -0.419,-0.098 -0.633,-0.12c-0.243,-0.025 -0.486,-0.025 -0.729,-0.002c-0.243,0.023 -0.481,0.07 -0.715,0.14c-0.234,0.07 -0.458,0.162 -0.674,0.277c-0.216,0.114 -0.418,0.249 -0.607,0.403c-0.18933,0.154 -0.36166,0.32533 -0.517,0.514c-0.155,0.188 -0.291,0.389 -0.407,0.604c-0.115,0.215 -0.209,0.439 -0.28,0.673c-0.072,0.233 -0.12,0.471 -0.145,0.714c-0.023,0.226 -0.051,0.452 -0.084,0.678c-0.034,0.225 -0.072,0.449 -0.116,0.672c-0.044,0.223 -0.092,0.446 -0.146,0.667c-0.054,0.221 -0.113,0.441 -0.177,0.66c-0.064,0.218 -0.133,0.435 -0.207,0.65c-0.074,0.215 -0.153,0.429 -0.237,0.641c-0.084,0.212 -0.172,0.421 -0.265,0.628c-0.094,0.208 -0.192,0.414 -0.295,0.617c-0.102,0.203 -0.21,0.403 -0.322,0.601c-0.112,0.199 -0.228,0.394 -0.349,0.587c-0.12133,0.19267 -0.247,0.38266 -0.377,0.57c-0.13,0.187 -0.263,0.371 -0.401,0.551c-0.139,0.181 -0.281,0.359 -0.427,0.534c-0.147,0.174 -0.297,0.345 -0.452,0.513c-0.154,0.167 -0.312,0.331 -0.474,0.491c-0.161,0.16 -0.326,0.317 -0.495,0.469c-0.169,0.153 -0.342,0.302 -0.517,0.447c-0.176,0.144 -0.355,0.285 -0.537,0.421c-0.182,0.137 -0.367,0.269 -0.555,0.397c-0.189,0.128 -0.38,0.251 -0.574,0.371c-0.194,0.119 -0.391,0.234 -0.59,0.343c-0.199,0.111 -0.401,0.216 -0.605,0.317c-0.204,0.101 -0.41,0.198 -0.619,0.289c-0.208,0.091 -0.419,0.178 -0.631,0.26c-0.213,0.082 -0.427,0.158 -0.643,0.23c-0.216,0.072 -0.433,0.139 -0.652,0.201c-0.22,0.062 -0.44,0.119 -0.661,0.171c-0.222,0.052 -0.445,0.098 -0.669,0.14c-0.224,0.041 -0.448,0.078 -0.674,0.109c-0.225,0.031 -0.451,0.057 -0.678,0.078c-0.227,0.021 -0.454,0.037 -0.681,0.047c-0.227,0.011 -0.455,0.016 -0.683,0.016h-13.51793c-0.243,0 -0.486,-0.006 -0.729,-0.018c-0.243,-0.012 -0.486,-0.03 -0.728,-0.054c-0.242,-0.024 -0.484,-0.053 -0.725,-0.089c-0.24,-0.036 -0.48,-0.077 -0.719,-0.125c-0.238,-0.047 -0.476,-0.101 -0.712,-0.16c-0.236,-0.059 -0.47,-0.124 -0.703,-0.194c-0.233,-0.071 -0.464,-0.147 -0.693,-0.229c-0.229,-0.082 -0.456,-0.17 -0.681,-0.263c-0.225,-0.093 -0.447,-0.192 -0.668,-0.296c-0.219,-0.104 -0.437,-0.213 -0.651,-0.328c-0.215,-0.115 -0.426,-0.234 -0.635,-0.36c-0.209,-0.125 -0.414,-0.255 -0.616,-0.39c-0.203,-0.135 -0.402,-0.275 -0.597,-0.42c-0.196,-0.145 -0.388,-0.295 -0.576,-0.45c-0.188,-0.154 -0.372,-0.313 -0.552,-0.476c-0.18067,-0.16333 -0.357,-0.331 -0.529,-0.503c-0.172,-0.172 -0.34,-0.348 -0.503,-0.528c-0.163,-0.181 -0.322,-0.365 -0.477,-0.554c-0.154,-0.188 -0.304,-0.379 -0.449,-0.575c-0.145,-0.195 -0.285,-0.394 -0.42,-0.597c-0.135,-0.202 -0.265,-0.407 -0.391,-0.616c-0.125,-0.209 -0.245,-0.42 -0.359,-0.635c-0.115,-0.215 -0.224,-0.432 -0.328,-0.652c-0.104,-0.22 -0.203,-0.442 -0.296,-0.667c-0.093,-0.225 -0.181,-0.452 -0.263,-0.681c-0.082,-0.229 -0.158,-0.46 -0.229,-0.693c-0.07067,-0.23267 -0.13533,-0.46733 -0.194,-0.704c-0.06,-0.236 -0.113,-0.473 -0.16,-0.712c-0.048,-0.238 -0.089,-0.478 -0.125,-0.719c-0.036,-0.24 -0.066,-0.482 -0.089,-0.724c-0.024,-0.242 -0.042,-0.485 -0.054,-0.728c-0.012,-0.243 -0.018,-0.486 -0.018,-0.73v-99.6025c0,-0.244 0.006,-0.487 0.018,-0.73c0.012,-0.243 0.03,-0.486 0.054,-0.728c0.023,-0.242 0.053,-0.483 0.089,-0.724c0.036,-0.241 0.077,-0.481 0.125,-0.719c0.04733,-0.23867 0.10067,-0.476 0.16,-0.712c0.059,-0.236 0.124,-0.471 0.194,-0.704c0.071,-0.233 0.147,-0.464 0.229,-0.693c0.082,-0.229 0.17,-0.456 0.263,-0.681c0.093,-0.224 0.192,-0.447 0.296,-0.667c0.104,-0.22 0.213,-0.437 0.328,-0.652c0.114,-0.214 0.234,-0.426 0.36,-0.635c0.125,-0.209 0.255,-0.414 0.39,-0.617c0.135,-0.202 0.275,-0.401 0.42,-0.596c0.145,-0.195 0.295,-0.387 0.449,-0.576c0.155,-0.188 0.314,-0.372 0.477,-0.552c0.164,-0.181 0.331,-0.357 0.503,-0.529c0.172,-0.172 0.348,-0.339 0.529,-0.503c0.18,-0.163 0.364,-0.322 0.552,-0.477c0.188,-0.154 0.38,-0.304 0.576,-0.449c0.19533,-0.14467 0.394,-0.28433 0.596,-0.419c0.203,-0.136 0.408,-0.266 0.617,-0.391c0.209,-0.125 0.42,-0.245 0.635,-0.36c0.214,-0.115 0.432,-0.224 0.651,-0.328c0.221,-0.104 0.443,-0.203 0.669,-0.296c0.224,-0.093 0.451,-0.18 0.68,-0.262c0.229,-0.082 0.46,-0.159 0.693,-0.229c0.233,-0.071 0.467,-0.136 0.703,-0.195c0.237,-0.059 0.474,-0.113 0.712,-0.16c0.239,-0.047 0.479,-0.089 0.719,-0.125c0.241,-0.036 0.483,-0.065 0.725,-0.089c0.242,-0.024 0.485,-0.042 0.728,-0.054c0.243,-0.012 0.486,-0.018 0.729,-0.018h28.74285c14.97692,0 27.32086,3.91898 37.03181,11.75594c10.97994,8.85996 16.46992,20.78389 16.46992,35.76982c0,11.78261 -3.48932,21.99589 -10.46795,30.63984c-1.10599,1.36899 -2.26399,2.65699 -3.47498,3.86198c-0.086,0.086 -0.168,0.176 -0.245,0.27c-0.078,0.094 -0.15,0.191 -0.218,0.292c-0.068,0.101 -0.13,0.205 -0.188,0.312c-0.058,0.108 -0.11,0.217 -0.157,0.33c-0.047,0.112 -0.088,0.226 -0.123,0.342c-0.036,0.117 -0.066,0.235 -0.09,0.354c-0.024,0.119 -0.042,0.239 -0.054,0.36c-0.012,0.121 -0.019,0.243 -0.019,0.365c0,0.121 0.005,0.243 0.017,0.364c0.012,0.121 0.029,0.241 0.052,0.36c0.024,0.12 0.053,0.238 0.088,0.354c0.035,0.117 0.076,0.231 0.122,0.344c0.046,0.112 0.098,0.222 0.155,0.33c0.057,0.107 0.119,0.212 0.186,0.313c0.068,0.102 0.14,0.199 0.217,0.294c0.076,0.094 0.158,0.184 0.244,0.271l16.60592,16.70892c0.341,0.344 0.666,0.704 0.972,1.07999c0.307,0.375 0.595,0.765 0.863,1.16899c0.269,0.404 0.517,0.82 0.745,1.24899c0.228,0.428 0.434,0.866 0.619,1.31499c0.185,0.448 0.348,0.904 0.488,1.36899c0.14,0.464 0.257,0.934 0.352,1.40999c0.094,0.476 0.165,0.955 0.212,1.43799c0.047,0.482 0.071,0.966 0.071,1.45099c0,0.243 -0.006,0.487 -0.018,0.73c-0.012,0.243 -0.03,0.486 -0.053,0.727c-0.024,0.243 -0.054,0.485 -0.09,0.726c-0.036,0.24 -0.077,0.48 -0.125,0.718c-0.047,0.238 -0.1,0.476 -0.16,0.713c-0.059,0.236 -0.124,0.47 -0.195,0.704c-0.07,0.232 -0.146,0.463 -0.228,0.692c-0.082,0.229 -0.17,0.456 -0.263,0.681c-0.093,0.224 -0.191,0.447 -0.296,0.667c-0.104,0.22 -0.213,0.437 -0.327,0.651c-0.115,0.215 -0.236,0.427 -0.361,0.637c-0.125,0.208 -0.255,0.413 -0.39,0.615c-0.135,0.203 -0.275,0.402 -0.42,0.597c-0.145,0.195 -0.295,0.387 -0.449,0.575c-0.155,0.189 -0.314,0.373 -0.476,0.553c-0.164,0.18 -0.332,0.357 -0.504,0.529c-0.172,0.172 -0.348,0.34 -0.529,0.503c-0.18,0.163 -0.364,0.322 -0.552,0.477c-0.189,0.154 -0.38,0.304 -0.576,0.449c-0.195,0.145 -0.394,0.285 -0.597,0.42c-0.202,0.135 -0.407,0.265 -0.616,0.39c-0.209,0.125 -0.421,0.245 -0.636,0.36c-0.214,0.115 -0.431,0.224 -0.651,0.328c-0.22,0.104 -0.442,0.203 -0.667,0.296c-0.225,0.093 -0.452,0.181 -0.681,0.263c-0.229,0.082 -0.46,0.158 -0.693,0.229c-0.233,0.07 -0.468,0.135 -0.704,0.194c-0.235,0.059 -0.473,0.113 -0.712,0.16c-0.238,0.048 -0.478,0.089 -0.719,0.125c-0.241,0.036 -0.482,0.065 -0.724,0.089c-0.242,0.024 -0.485,0.042 -0.727,0.054c-0.244,0.012 -0.487,0.018 -0.73,0.018h-18.14291c-0.492,0 -0.984,-0.024 -1.47499,-0.073c-0.49,-0.049 -0.977,-0.122 -1.45999,-0.22c-0.483,-0.097 -0.961,-0.218 -1.43199,-0.363c-0.471,-0.145 -0.934,-0.312 -1.38799,-0.503c-0.455,-0.191 -0.898,-0.404 -1.33199,-0.639c-0.433,-0.235 -0.854,-0.491 -1.26099,-0.767c-0.408,-0.277 -0.801,-0.573 -1.17999,-0.889z"
                fill="#2d3748" style="fill: #2d3748;"></path>
            <path
                d="M277.95299,202.47256l34.22083,34.43383h-18.14291l-37.06581,-37.77781l4.19698,-5.69097c19.5649,0.213 30.52185,-8.67996 30.52185,-23.33588c0,-14.15793 -9.53395,-20.2769 -28.17386,-20.2769h-12.16594v87.08156h-13.51793v-99.6025h28.74285c22.33989,0 38.6318,11.66794 38.6318,32.65583c0,16.14992 -10.03095,29.80985 -27.24786,32.51284z"
                fill="#2d3748" style="fill: #2d3748;"></path>
        </g>
    </g>
</svg>