<svg width="80" height="64" viewBox="0 0 80 64" fill="none" xmlns="http://www.w3.org/2000/svg">
<g clip-path="url(#clip0_523_3012)">
<path d="M0 54.0002C0 59.5002 4.5 64.0002 10 64.0002H70C75.5 64.0002 80 59.5002 80 54.0002V49.2002H0V54.0002Z" fill="#FDB827"/>
<rect y="14.7998" width="80" height="34.4" fill="white"/>
<path d="M43.2999 38.3001C40.7999 38.4001 38.0999 36.3001 38.0999 36.3001L35.3999 40.1001C35.3999 40.1001 38.3999 42.5001 44.2999 42.5001C48.2999 42.5001 51.7999 39.3001 51.8999 35.9001C52.0999 30.9001 44.4999 29.5001 44.7999 27.4001C44.9999 26.3001 45.7999 25.7001 47.5999 25.7001C48.8999 25.7001 51.2999 27.5001 51.2999 27.5001L54.3999 24.2001C52.2999 22.6001 49.7999 21.7001 47.1999 21.6001C42.7999 21.6001 40.1999 23.8001 39.3999 26.9001C37.9999 32.6001 45.9999 33.8001 46.2999 36.4001C46.2999 37.6001 44.9999 38.2001 43.2999 38.3001Z" fill="#0061B2"/>
<path d="M72.1002 23.0002C72.1002 22.9002 72.1002 22.9002 72.0002 22.8002C72.0002 22.7002 71.9002 22.7002 71.9002 22.7002C71.8002 22.7002 71.7002 22.7002 71.6002 22.7002H71.2002V24.0002H71.4002V23.4002H71.5002C71.5002 23.4002 71.6002 23.4002 71.7002 23.4002C71.8002 23.5002 71.9002 23.6002 71.9002 23.7002L72.0002 23.9002H72.3002L72.0002 23.6002C71.9002 23.5002 71.9002 23.4002 71.8002 23.4002L71.7002 23.3002C71.8002 23.3002 71.9002 23.3002 71.9002 23.2002C72.1002 23.1002 72.1002 23.0002 72.1002 23.0002ZM71.9002 23.1002C71.9002 23.2002 71.9002 23.2002 71.8002 23.2002C71.7002 23.2002 71.7002 23.2002 71.6002 23.2002H71.4002V22.9002H71.6002C71.7002 22.9002 71.7002 22.9002 71.8002 22.9002C71.9002 22.9002 71.9002 22.9002 71.9002 23.1002C71.9002 23.0002 71.9002 23.0002 71.9002 23.1002Z" fill="#0061B2"/>
<path d="M70 0H10C4.5 0 0 4.5 0 10V14.8H80V10C80 4.5 75.5 0 70 0Z" fill="#0061B2"/>
<path d="M71.5998 22.2002C71.3998 22.2002 71.1998 22.2002 71.0998 22.3002C70.8998 22.4002 70.7998 22.5002 70.6998 22.7002C70.4998 23.0002 70.4998 23.5002 70.6998 23.8002C70.7998 24.0002 70.8998 24.1002 71.0998 24.2002C71.3998 24.4002 71.8998 24.4002 72.1998 24.2002C72.3998 24.1002 72.4998 24.0002 72.5998 23.8002C72.7998 23.5002 72.7998 23.0002 72.5998 22.7002C72.4998 22.5002 72.3998 22.4002 72.1998 22.3002C71.9998 22.2002 71.7998 22.2002 71.5998 22.2002ZM72.3998 22.8002C72.4998 22.9002 72.4998 23.1002 72.4998 23.3002C72.4998 23.5002 72.4998 23.7002 72.3998 23.8002C72.0998 24.2002 71.5998 24.4002 71.0998 24.1002C70.6998 23.8002 70.4998 23.3002 70.7998 22.8002C70.8998 22.7002 70.9998 22.5002 71.1998 22.5002C71.2998 22.4002 71.4998 22.4002 71.5998 22.4002C71.7998 22.4002 71.8998 22.4002 71.9998 22.5002C72.1998 22.5002 72.2998 22.6002 72.3998 22.8002Z" fill="#0061B2"/>
<path d="M26.2998 41.6998H31.5998L38.0998 21.7998H32.7998L26.2998 41.6998Z" fill="#0061B2"/>
<path d="M17.4998 33.7998L16.2998 21.7998H10.8998H7.2998V22.3998C10.0998 22.4998 10.8998 23.7998 11.2998 25.2998L12.9998 41.6998H18.3998L29.9998 21.7998H24.5998L17.4998 33.7998Z" fill="#0061B2"/>
<path d="M61.8001 22.2002L51.6001 41.7002H57.3001L58.8001 38.7002H65.4001L65.6001 41.7002H71.0001L69.5001 22.2002H61.8001ZM60.5001 35.5002L64.6001 27.2002L65.2001 35.5002H60.5001Z" fill="#0061B2"/>
</g>
<defs>
<clipPath id="clip0_523_3012">
<rect width="80" height="64" fill="white"/>
</clipPath>
</defs>
</svg>
